<svg width="20" height="21" viewBox="0 0 20 21" fill="none" xmlns="http://www.w3.org/2000/svg">
<mask id="mask0_1_1275" style="mask-type:luminance" maskUnits="userSpaceOnUse" x="0" y="0" width="20" height="21">
<path d="M20 0.5H0V20.5H20V0.5Z" fill="white"/>
</mask>
<g mask="url(#mask0_1_1275)">
<path d="M18.5 2.30483C18.0315 1.9131 17.4826 1.62932 16.8921 1.47363C16.3016 1.31794 15.684 1.29417 15.0833 1.40399L11.8983 1.98233C11.163 2.11736 10.4944 2.49568 10 3.05649C9.5043 2.49471 8.8338 2.11631 8.09667 1.98233L4.91667 1.40399C4.31596 1.29407 3.69844 1.31753 3.10781 1.47272C2.51718 1.62791 1.96789 1.91103 1.4988 2.30204C1.02972 2.69305 0.652322 3.18238 0.393318 3.73542C0.134315 4.28845 4.0677e-05 4.89165 0 5.50233V14.4965C4.78799e-05 15.4722 0.342481 16.4169 0.967611 17.166C1.59274 17.9151 2.46092 18.421 3.42083 18.5957L8.65917 19.5482C9.5458 19.7093 10.4542 19.7093 11.3408 19.5482L16.5833 18.5957C17.5425 18.4201 18.4097 17.9138 19.034 17.1648C19.6583 16.4158 20.0001 15.4716 20 14.4965V5.50233C20.0004 4.89186 19.8662 4.28883 19.6069 3.73615C19.3476 3.18348 18.9697 2.69477 18.5 2.30483ZM9.16667 17.9423C9.09667 17.9323 9.02667 17.9207 8.95667 17.9082L3.71917 16.9565C3.14314 16.8517 2.62216 16.548 2.24707 16.0985C1.87198 15.6489 1.66658 15.082 1.66667 14.4965V5.50233C1.66667 4.83929 1.93006 4.2034 2.3989 3.73456C2.86774 3.26572 3.50363 3.00233 4.16667 3.00233C4.31758 3.00269 4.46816 3.01635 4.61667 3.04316L7.8 3.62649C8.18301 3.69658 8.52939 3.89855 8.77904 4.19736C9.02868 4.49617 9.16582 4.87296 9.16667 5.26233V17.9423ZM18.3333 14.4965C18.3334 15.082 18.128 15.6489 17.7529 16.0985C17.3778 16.548 16.8569 16.8517 16.2808 16.9565L11.0433 17.9082C10.9733 17.9207 10.9033 17.9323 10.8333 17.9423V5.26233C10.8333 4.872 10.9702 4.49404 11.2203 4.19433C11.4703 3.89463 11.8176 3.69219 12.2017 3.62233L15.3858 3.03899C15.7464 2.97339 16.117 2.98787 16.4714 3.08142C16.8258 3.17497 17.1553 3.34529 17.4365 3.58033C17.7178 3.81537 17.9439 4.10937 18.0988 4.44151C18.2538 4.77365 18.3339 5.13581 18.3333 5.50233V14.4965Z" fill="#868686"/>
</g>
</svg>
