<svg width="97" height="96" viewBox="0 0 97 96" fill="none" xmlns="http://www.w3.org/2000/svg">
<g filter="url(#filter0_d_1_607)">
<rect x="20" y="16" width="57" height="56" rx="10" fill="#1FA45B"/>
</g>
<g filter="url(#filter1_d_1_607)">
<path d="M56.2577 39.39C56.7087 38.925 56.9877 38.282 56.9877 37.572C56.9877 36.862 56.7087 36.219 56.2577 35.754C56.0296 35.516 55.7558 35.3265 55.4527 35.1969C55.1496 35.0674 54.8234 35.0004 54.4937 35C54.4937 35 53.2497 34.997 51.9997 36.286C50.7497 34.997 49.5057 35 49.5057 35C49.1762 35.0004 48.8501 35.0673 48.547 35.1967C48.2439 35.3261 47.97 35.5153 47.7417 35.753C47.2907 36.219 47.0117 36.861 47.0117 37.571C47.0117 38.281 47.2907 38.925 47.7417 39.389L50.5305 42.409C51.3224 43.2665 52.6772 43.2666 53.4691 42.4092L56.2577 39.39Z" fill="white"/>
<path fill-rule="evenodd" clip-rule="evenodd" d="M56.226 45.02L53.0478 47.5619C52.6932 47.8455 52.2526 48 51.7986 48H48C47.7239 48 47.5 47.7761 47.5 47.5C47.5 47.2239 47.7239 47 48 47H51.565C51.6554 47 51.7442 46.9754 51.8218 46.9289C51.8993 46.8824 51.9629 46.8157 52.0055 46.736C52.0482 46.6563 52.0685 46.5664 52.0642 46.4761C52.0598 46.3858 52.0311 46.2983 51.981 46.223L51.093 44.891C50.9108 44.6168 50.6636 44.392 50.3735 44.2365C50.0833 44.081 49.7592 43.9998 49.43 44H44C43.7348 44 43.4804 44.1054 43.2929 44.2929C43.2667 44.3191 43.2275 44.3615 43.1767 44.4164C42.8637 44.755 42.1104 45.5698 41.25 46L38.5 46V51H40.75C42 51 43.1249 51.1249 43.5 51.5C43.8751 51.8751 44.4696 52 45 52H52.139C52.5666 52.0001 52.9893 51.9088 53.3787 51.7322C53.7682 51.5556 54.1153 51.2977 54.397 50.976L59.4064 46.0708C59.906 45.5816 59.7114 44.7371 59.048 44.516C58.573 44.3577 58.0658 44.3208 57.5729 44.4089C57.0799 44.4969 56.6169 44.707 56.226 45.02Z" fill="white"/>
</g>
<defs>
<filter id="filter0_d_1_607" x="0" y="0" width="97" height="96" filterUnits="userSpaceOnUse" color-interpolation-filters="sRGB">
<feFlood flood-opacity="0" result="BackgroundImageFix"/>
<feColorMatrix in="SourceAlpha" type="matrix" values="0 0 0 0 0 0 0 0 0 0 0 0 0 0 0 0 0 0 127 0" result="hardAlpha"/>
<feOffset dy="4"/>
<feGaussianBlur stdDeviation="10"/>
<feComposite in2="hardAlpha" operator="out"/>
<feColorMatrix type="matrix" values="0 0 0 0 0.121569 0 0 0 0 0.643137 0 0 0 0 0.356863 0 0 0 0.22 0"/>
<feBlend mode="normal" in2="BackgroundImageFix" result="effect1_dropShadow_1_607"/>
<feBlend mode="normal" in="SourceGraphic" in2="effect1_dropShadow_1_607" result="shape"/>
</filter>
<filter id="filter1_d_1_607" x="33" y="32" width="32" height="32" filterUnits="userSpaceOnUse" color-interpolation-filters="sRGB">
<feFlood flood-opacity="0" result="BackgroundImageFix"/>
<feColorMatrix in="SourceAlpha" type="matrix" values="0 0 0 0 0 0 0 0 0 0 0 0 0 0 0 0 0 0 127 0" result="hardAlpha"/>
<feOffset dy="4"/>
<feGaussianBlur stdDeviation="2"/>
<feComposite in2="hardAlpha" operator="out"/>
<feColorMatrix type="matrix" values="0 0 0 0 0 0 0 0 0 0 0 0 0 0 0 0 0 0 0.25 0"/>
<feBlend mode="normal" in2="BackgroundImageFix" result="effect1_dropShadow_1_607"/>
<feBlend mode="normal" in="SourceGraphic" in2="effect1_dropShadow_1_607" result="shape"/>
</filter>
</defs>
</svg>
