<svg width="20" height="21" viewBox="0 0 20 21" fill="none" xmlns="http://www.w3.org/2000/svg">
<mask id="mask0_1_1292" style="mask-type:luminance" maskUnits="userSpaceOnUse" x="0" y="0" width="20" height="21">
<path d="M20 0.5H0V20.5H20V0.5Z" fill="white"/>
</mask>
<g mask="url(#mask0_1_1292)">
<path d="M19.2675 8.05531L12.9467 1.73365C12.1644 0.953638 11.1047 0.515625 10 0.515625C8.89529 0.515625 7.83564 0.953638 7.05334 1.73365L0.73251 8.05531C0.499531 8.2868 0.314818 8.56223 0.189079 8.86563C0.0633394 9.16904 -0.000925334 9.49439 1.00662e-05 9.82281V18.0036C1.00662e-05 18.6667 0.263402 19.3026 0.732243 19.7714C1.20108 20.2403 1.83697 20.5036 2.50001 20.5036H17.5C18.1631 20.5036 18.7989 20.2403 19.2678 19.7714C19.7366 19.3026 20 18.6667 20 18.0036V9.82281C20.0009 9.49439 19.9367 9.16904 19.8109 8.86563C19.6852 8.56223 19.5005 8.2868 19.2675 8.05531ZM12.5 18.837H7.50001V15.5586C7.50001 14.8956 7.7634 14.2597 8.23224 13.7909C8.70109 13.322 9.33697 13.0586 10 13.0586C10.6631 13.0586 11.2989 13.322 11.7678 13.7909C12.2366 14.2597 12.5 14.8956 12.5 15.5586V18.837ZM18.3333 18.0036C18.3333 18.2247 18.2455 18.4366 18.0893 18.5929C17.933 18.7492 17.721 18.837 17.5 18.837H14.1667V15.5586C14.1667 14.4536 13.7277 13.3938 12.9463 12.6124C12.1649 11.831 11.1051 11.392 10 11.392C8.89494 11.392 7.83513 11.831 7.05373 12.6124C6.27233 13.3938 5.83334 14.4536 5.83334 15.5586V18.837H2.50001C2.279 18.837 2.06703 18.7492 1.91075 18.5929C1.75447 18.4366 1.66668 18.2247 1.66668 18.0036V9.82281C1.66745 9.60196 1.75517 9.3903 1.91084 9.23365L8.23168 2.91448C8.70143 2.44692 9.33723 2.18443 10 2.18443C10.6628 2.18443 11.2986 2.44692 11.7683 2.91448L18.0892 9.23615C18.2442 9.39219 18.3319 9.60283 18.3333 9.82281V18.0036Z" fill="#868686"/>
</g>
</svg>
