<svg width="28" height="29" viewBox="0 0 28 29" fill="none" xmlns="http://www.w3.org/2000/svg">
<g clip-path="url(#clip0_1_1268)" filter="url(#filter0_d_1_1268)">
<mask id="mask0_1_1268" style="mask-type:luminance" maskUnits="userSpaceOnUse" x="4" y="0" width="20" height="21">
<path d="M24 0.5H4V20.5H24V0.5Z" fill="white"/>
</mask>
<g mask="url(#mask0_1_1268)">
<path d="M24 13.8339V18.0005C24 18.6636 23.7366 19.2994 23.2678 19.7683C22.7989 20.2371 22.163 20.5005 21.5 20.5005H17.3333C16.1642 20.4993 15.016 20.1907 14.0039 19.6056C12.9917 19.0206 12.1512 18.1796 11.5667 17.1672C12.1949 17.1627 12.821 17.0934 13.435 16.9605C13.9026 17.5452 14.4958 18.0172 15.1707 18.3415C15.8455 18.6658 16.5846 18.8341 17.3333 18.8339H21.5C21.721 18.8339 21.933 18.7461 22.0893 18.5898C22.2455 18.4335 22.3333 18.2215 22.3333 18.0005V13.8339C22.3331 13.0849 22.1643 12.3456 21.8395 11.6707C21.5146 10.9959 21.042 10.4028 20.4567 9.93552C20.5907 9.32162 20.6611 8.69553 20.6667 8.06718C21.6791 8.65173 22.5201 9.49224 23.1051 10.5044C23.6902 11.5166 23.9988 12.6648 24 13.8339ZM18.9808 8.54302C19.0588 7.46938 18.9047 6.39155 18.529 5.38276C18.1534 4.37398 17.565 3.45787 16.8038 2.6967C16.0426 1.93553 15.1265 1.34713 14.1178 0.971482C13.109 0.595836 12.0311 0.441746 10.9575 0.519684C9.05493 0.736961 7.29744 1.64233 6.01598 3.0653C4.73452 4.48828 4.01752 6.33066 4 8.24552V12.4455C4 14.5555 5.25583 15.5005 6.5 15.5005H11.25C13.1657 15.484 15.0092 14.7675 16.4332 13.486C17.8571 12.2044 18.7633 10.4464 18.9808 8.54302ZM15.625 3.87635C16.2166 4.46927 16.674 5.18235 16.9661 5.96734C17.2582 6.75233 17.3784 7.59092 17.3183 8.42635C17.1405 9.91275 16.4254 11.2829 15.3078 12.2788C14.1901 13.2747 12.747 13.8278 11.25 13.8339H6.5C5.72667 13.8339 5.66667 12.7714 5.66667 12.4455V8.24552C5.67361 6.74916 6.22721 5.30694 7.22326 4.19025C8.21932 3.07356 9.58916 2.35941 11.075 2.18218C11.2133 2.17218 11.3517 2.16718 11.49 2.16718C12.2577 2.16647 13.0181 2.31705 13.7276 2.61032C14.4371 2.90358 15.0818 3.33379 15.625 3.87635Z" fill="#868686"/>
</g>
</g>
<defs>
<filter id="filter0_d_1_1268" x="0" y="0.5" width="28" height="28" filterUnits="userSpaceOnUse" color-interpolation-filters="sRGB">
<feFlood flood-opacity="0" result="BackgroundImageFix"/>
<feColorMatrix in="SourceAlpha" type="matrix" values="0 0 0 0 0 0 0 0 0 0 0 0 0 0 0 0 0 0 127 0" result="hardAlpha"/>
<feOffset dy="4"/>
<feGaussianBlur stdDeviation="2"/>
<feComposite in2="hardAlpha" operator="out"/>
<feColorMatrix type="matrix" values="0 0 0 0 0 0 0 0 0 0 0 0 0 0 0 0 0 0 0.25 0"/>
<feBlend mode="normal" in2="BackgroundImageFix" result="effect1_dropShadow_1_1268"/>
<feBlend mode="normal" in="SourceGraphic" in2="effect1_dropShadow_1_1268" result="shape"/>
</filter>
<clipPath id="clip0_1_1268">
<rect width="20" height="20" fill="white" transform="translate(4 0.5)"/>
</clipPath>
</defs>
</svg>
