<svg width="20" height="21" viewBox="0 0 20 21" fill="none" xmlns="http://www.w3.org/2000/svg">
<g clip-path="url(#clip0_1_1256)">
<mask id="mask0_1_1256" style="mask-type:luminance" maskUnits="userSpaceOnUse" x="0" y="0" width="20" height="21">
<path d="M20 0.5H0V20.5H20V0.5Z" fill="white"/>
</mask>
<g mask="url(#mask0_1_1256)">
<path d="M14.9945 2.40694C13.9774 1.49823 12.7317 0.884094 11.3915 0.630634C10.0513 0.377174 8.66734 0.493983 7.38858 0.968491C6.10983 1.443 4.98468 2.25724 4.13423 3.32359C3.28377 4.38993 2.74021 5.66801 2.56203 7.02028C2.40202 8.20598 2.52999 9.41279 2.93513 10.5386C3.34027 11.6643 4.01065 12.6759 4.88953 13.4878C5.43303 13.9644 5.8716 14.5487 6.17744 15.2037C6.48327 15.8587 6.64971 16.5701 6.6662 17.2928V17.4269C6.66708 18.2422 6.99134 19.0238 7.56782 19.6003C8.1443 20.1768 8.92593 20.5011 9.7412 20.5019H10.2579C11.0731 20.5011 11.8548 20.1768 12.4312 19.6003C13.0077 19.0238 13.332 18.2422 13.3329 17.4269V16.9694C13.3453 16.3307 13.4957 15.7021 13.7735 15.1268C14.0514 14.5515 14.4503 14.043 14.9429 13.6361C15.7417 12.9365 16.3827 12.0751 16.8235 11.109C17.2643 10.1429 17.4948 9.09421 17.4997 8.03234C17.5045 6.97046 17.2837 5.91967 16.8519 4.94957C16.42 3.97948 15.7869 3.11223 14.9945 2.40527V2.40694ZM10.2579 18.8353H9.7412C9.36782 18.8348 9.00986 18.6863 8.74585 18.4223C8.48183 18.1583 8.33331 17.8003 8.33287 17.4269C8.33287 17.4269 8.32703 17.2103 8.3262 17.1686H11.6662V17.4269C11.6658 17.8003 11.5172 18.1583 11.2532 18.4223C10.9892 18.6863 10.6312 18.8348 10.2579 18.8353ZM13.8412 12.3844C12.8924 13.2074 12.2072 14.2917 11.8712 15.5019H10.8329V9.51528C11.3186 9.34354 11.7395 9.02592 12.0378 8.60586C12.3361 8.1858 12.4974 7.68383 12.4995 7.16861C12.4995 6.94759 12.4117 6.73563 12.2555 6.57935C12.0992 6.42307 11.8872 6.33528 11.6662 6.33528C11.4452 6.33528 11.2332 6.42307 11.0769 6.57935C10.9207 6.73563 10.8329 6.94759 10.8329 7.16861C10.8329 7.38962 10.7451 7.60158 10.5888 7.75786C10.4325 7.91414 10.2205 8.00194 9.99953 8.00194C9.77852 8.00194 9.56656 7.91414 9.41028 7.75786C9.254 7.60158 9.1662 7.38962 9.1662 7.16861C9.1662 6.94759 9.0784 6.73563 8.92212 6.57935C8.76584 6.42307 8.55388 6.33528 8.33287 6.33528C8.11185 6.33528 7.89989 6.42307 7.74361 6.57935C7.58733 6.73563 7.49953 6.94759 7.49953 7.16861C7.50167 7.68383 7.66294 8.1858 7.96127 8.60586C8.25961 9.02592 8.68044 9.34354 9.1662 9.51528V15.5019H8.06453C7.68869 14.2596 6.9838 13.1421 6.02453 12.2678C5.21033 11.5091 4.63014 10.5334 4.35242 9.45568C4.07471 8.378 4.11107 7.24337 4.45721 6.18569C4.80335 5.128 5.44482 4.1914 6.30592 3.48641C7.16703 2.78142 8.21183 2.33747 9.31703 2.20694C9.54614 2.18137 9.7765 2.16857 10.007 2.16861C11.4383 2.16435 12.8201 2.69246 13.8837 3.65027C14.5001 4.19994 14.9926 4.87435 15.3287 5.6288C15.6647 6.38324 15.8365 7.2005 15.8327 8.02638C15.8289 8.85226 15.6496 9.6679 15.3067 10.4192C14.9638 11.1706 14.4651 11.8404 13.8437 12.3844H13.8412Z" fill="#868686"/>
</g>
</g>
<defs>
<clipPath id="clip0_1_1256">
<rect width="20" height="20" fill="white" transform="translate(0 0.5)"/>
</clipPath>
</defs>
</svg>
