<svg width="24" height="25" viewBox="0 0 24 25" fill="none" xmlns="http://www.w3.org/2000/svg">
<path d="M8 3.25H5C3.75736 3.25 2.75 4.25736 2.75 5.5V8.5C2.75 9.74264 3.75736 10.75 5 10.75H8C9.24264 10.75 10.25 9.74264 10.25 8.5V5.5C10.25 4.25736 9.24264 3.25 8 3.25Z" stroke="#868686" stroke-width="1.5"/>
<path d="M19 3.25H16C14.7574 3.25 13.75 4.25736 13.75 5.5V8.5C13.75 9.74264 14.7574 10.75 16 10.75H19C20.2426 10.75 21.25 9.74264 21.25 8.5V5.5C21.25 4.25736 20.2426 3.25 19 3.25Z" stroke="#868686" stroke-width="1.5"/>
<path d="M19 14.25H16C14.7574 14.25 13.75 15.2574 13.75 16.5V19.5C13.75 20.7426 14.7574 21.75 16 21.75H19C20.2426 21.75 21.25 20.7426 21.25 19.5V16.5C21.25 15.2574 20.2426 14.25 19 14.25Z" stroke="#868686" stroke-width="1.5"/>
<path d="M8 14.25H5C3.75736 14.25 2.75 15.2574 2.75 16.5V19.5C2.75 20.7426 3.75736 21.75 5 21.75H8C9.24264 21.75 10.25 20.7426 10.25 19.5V16.5C10.25 15.2574 9.24264 14.25 8 14.25Z" stroke="#868686" stroke-width="1.5"/>
</svg>
