<svg width="24" height="29" viewBox="0 0 24 29" fill="none" xmlns="http://www.w3.org/2000/svg">
<g clip-path="url(#clip0_1_1262)" filter="url(#filter0_d_1_1262)">
<mask id="mask0_1_1262" style="mask-type:luminance" maskUnits="userSpaceOnUse" x="2" y="0" width="20" height="21">
<path d="M22 0.5H2V20.5H22V0.5Z" fill="white"/>
</mask>
<g mask="url(#mask0_1_1262)">
<path d="M15.3333 6.33334L15.3142 5.35251C15.8734 5.16126 16.3465 4.77759 16.6491 4.26993C16.9517 3.76226 17.0641 3.16362 16.9663 2.58076C16.8685 1.9979 16.5668 1.46873 16.1151 1.08763C15.6634 0.706529 15.091 0.498274 14.5 0.500011H9.5C8.91098 0.498895 8.34057 0.706277 7.8898 1.08543C7.43903 1.46458 7.13699 1.99102 7.03718 2.57153C6.93737 3.15203 7.04622 3.74913 7.34447 4.25707C7.64271 4.765 8.1111 5.15099 8.66667 5.34668V6.33334C7.562 6.33467 6.50296 6.77408 5.72185 7.55519C4.94073 8.33631 4.50132 9.39535 4.5 10.5V16.3333C4.50132 17.438 4.94073 18.497 5.72185 19.2782C6.50296 20.0593 7.562 20.4987 8.66667 20.5H15.3333C16.438 20.4987 17.497 20.0593 18.2782 19.2782C19.0593 18.497 19.4987 17.438 19.5 16.3333V10.5C19.4987 9.39535 19.0593 8.33631 18.2782 7.55519C17.497 6.77408 16.438 6.33467 15.3333 6.33334ZM9.5 2.16668H14.5C14.721 2.16668 14.933 2.25447 15.0893 2.41076C15.2455 2.56704 15.3333 2.779 15.3333 3.00001C15.3333 3.22102 15.2455 3.43299 15.0893 3.58927C14.933 3.74555 14.721 3.83334 14.5 3.83334H9.5C9.27899 3.83334 9.06702 3.74555 8.91074 3.58927C8.75446 3.43299 8.66667 3.22102 8.66667 3.00001C8.66667 2.779 8.75446 2.56704 8.91074 2.41076C9.06702 2.25447 9.27899 2.16668 9.5 2.16668ZM17.8333 16.3333C17.8333 16.9964 17.5699 17.6323 17.1011 18.1011C16.6323 18.57 15.9964 18.8333 15.3333 18.8333H8.66667C8.00363 18.8333 7.36774 18.57 6.8989 18.1011C6.43006 17.6323 6.16667 16.9964 6.16667 16.3333V10.5C6.16667 9.83697 6.43006 9.20109 6.8989 8.73224C7.36774 8.2634 8.00363 8.00001 8.66667 8.00001H9.5C9.72101 8.00001 9.93297 7.91221 10.0893 7.75593C10.2455 7.59965 10.3333 7.38769 10.3333 7.16668V5.50001H13.6442L13.6667 7.17834C13.6697 7.39733 13.7589 7.60631 13.9148 7.76007C14.0708 7.91384 14.281 8.00003 14.5 8.00001H15.3333C15.9964 8.00001 16.6323 8.2634 17.1011 8.73224C17.5699 9.20109 17.8333 9.83697 17.8333 10.5V16.3333ZM15.3333 13C15.3333 13.221 15.2455 13.433 15.0893 13.5893C14.933 13.7455 14.721 13.8333 14.5 13.8333H12.8333V15.5C12.8333 15.721 12.7455 15.933 12.5893 16.0893C12.433 16.2455 12.221 16.3333 12 16.3333C11.779 16.3333 11.567 16.2455 11.4107 16.0893C11.2545 15.933 11.1667 15.721 11.1667 15.5V13.8333H9.5C9.27899 13.8333 9.06702 13.7455 8.91074 13.5893C8.75446 13.433 8.66667 13.221 8.66667 13C8.66667 12.779 8.75446 12.567 8.91074 12.4108C9.06702 12.2545 9.27899 12.1667 9.5 12.1667H11.1667V10.5C11.1667 10.279 11.2545 10.067 11.4107 9.91076C11.567 9.75448 11.779 9.66668 12 9.66668C12.221 9.66668 12.433 9.75448 12.5893 9.91076C12.7455 10.067 12.8333 10.279 12.8333 10.5V12.1667H14.5C14.721 12.1667 14.933 12.2545 15.0893 12.4108C15.2455 12.567 15.3333 12.779 15.3333 13Z" fill="#868686"/>
</g>
</g>
<defs>
<filter id="filter0_d_1_1262" x="-2" y="0.5" width="28" height="28" filterUnits="userSpaceOnUse" color-interpolation-filters="sRGB">
<feFlood flood-opacity="0" result="BackgroundImageFix"/>
<feColorMatrix in="SourceAlpha" type="matrix" values="0 0 0 0 0 0 0 0 0 0 0 0 0 0 0 0 0 0 127 0" result="hardAlpha"/>
<feOffset dy="4"/>
<feGaussianBlur stdDeviation="2"/>
<feComposite in2="hardAlpha" operator="out"/>
<feColorMatrix type="matrix" values="0 0 0 0 0 0 0 0 0 0 0 0 0 0 0 0 0 0 0.25 0"/>
<feBlend mode="normal" in2="BackgroundImageFix" result="effect1_dropShadow_1_1262"/>
<feBlend mode="normal" in="SourceGraphic" in2="effect1_dropShadow_1_1262" result="shape"/>
</filter>
<clipPath id="clip0_1_1262">
<rect width="20" height="20" fill="white" transform="translate(2 0.5)"/>
</clipPath>
</defs>
</svg>
