<svg width="20" height="20" viewBox="0 0 20 20" fill="none" xmlns="http://www.w3.org/2000/svg">
<path d="M6.68408 11.3424C6.88608 10.9384 7.00008 10.4824 7.00008 10.0004C7.00008 9.5184 6.88608 9.0624 6.68408 8.6584M6.68408 11.3424V8.6584M6.68408 11.3424C6.38178 11.9467 5.88428 12.4314 5.27217 12.7177C4.66007 13.0041 3.96921 13.0754 3.31152 12.9201C2.65384 12.7648 2.06785 12.3919 1.64849 11.862C1.22914 11.3321 1.00098 10.6761 1.00098 10.0004C1.00098 9.3246 1.22914 8.6686 1.64849 8.1387C2.06785 7.60877 2.65384 7.23596 3.31152 7.08066C3.96921 6.92535 4.66007 6.99665 5.27217 7.283C5.88428 7.56934 6.38178 8.054 6.68408 8.6584M6.68408 11.3424L13.3161 14.6584M6.68408 8.6584L13.3161 5.34236M13.3161 14.6584C12.9602 15.3702 12.9016 16.1943 13.1533 16.9493C13.4049 17.7043 13.9462 18.3284 14.6581 18.6844C15.3699 19.0403 16.194 19.0988 16.949 18.8472C17.704 18.5955 18.3282 18.0542 18.6841 17.3424C19.04 16.6305 19.0986 15.8064 18.8469 15.0514C18.5952 14.2964 18.0539 13.6723 17.3421 13.3164C16.9896 13.1401 16.6059 13.035 16.2128 13.0071C15.8197 12.9792 15.425 13.0289 15.0511 13.1535C14.2961 13.4052 13.672 13.9465 13.3161 14.6584ZM13.3161 5.34236C13.4923 5.69476 13.7362 6.009 14.0339 6.26714C14.3316 6.52527 14.6772 6.72225 15.051 6.84682C15.4248 6.97139 15.8195 7.02111 16.2125 6.99315C16.6055 6.96519 16.9892 6.86009 17.3416 6.68386C17.694 6.50762 18.0082 6.26371 18.2664 5.96603C18.5245 5.66835 18.7215 5.32274 18.846 4.94894C18.9706 4.57514 19.0203 4.18046 18.9924 3.78744C18.9644 3.39442 18.8593 3.01076 18.6831 2.65836C18.3272 1.94665 17.7031 1.40548 16.9482 1.1539C16.1932 0.90232 15.3693 0.96094 14.6576 1.31686C13.9459 1.67278 13.4047 2.29685 13.1531 3.05177C12.9015 3.8067 12.9602 4.63065 13.3161 5.34236Z" stroke="#868686" stroke-width="2" stroke-linecap="round" stroke-linejoin="round"/>
</svg>
